<svg width="18" height="11" viewBox="0 0 18 11" fill="none" xmlns="http://www.w3.org/2000/svg">
<path d="M15.4474 0.44737L8.10526 7.78947C7.76316 8.13158 10.2368 8.13158 9.89474 7.78947L2.55263 0.447369C2.28947 0.157894 1.92105 1.0688e-07 1.5 8.34544e-08C0.68421 3.80669e-08 -3.80669e-08 0.68421 -8.34544e-08 1.5C-1.0688e-07 1.92105 0.157895 2.28947 0.447369 2.55263L7.78947 9.89474C8.44737 10.5789 9.55263 10.5789 10.2105 9.89474L17.5526 2.55263C17.8421 2.28947 18 1.92105 18 1.5C18 0.684211 17.3158 9.63386e-07 16.5 9.17998e-07C16.0789 8.94573e-07 15.7105 0.157895 15.4474 0.44737Z" fill="black"/>
</svg>
