<svg width="37" height="37" viewBox="0 0 37 37" fill="none" xmlns="http://www.w3.org/2000/svg">
<rect width="37" height="37" rx="8" fill="url(#paint0_linear_1038_286)"/>
<g clip-path="url(#clip0_1038_286)">
<path d="M28.3845 26.7694H27.7282V14.6289C27.7282 14.2891 27.4528 14.0137 27.113 14.0137H24.6521C24.3123 14.0137 24.0369 14.2891 24.0369 14.6289V26.7694H22.8064V18.7304C22.8064 18.3906 22.531 18.1152 22.1912 18.1152H19.7303C19.3905 18.1152 19.1151 18.3906 19.1151 18.7304V26.7694H17.8846V20.9862C17.8846 20.6465 17.6092 20.371 17.2694 20.371H14.8085C14.4687 20.371 14.1933 20.6465 14.1933 20.9862V26.7694H12.9628V22.4628C12.9628 22.123 12.6874 21.8475 12.3476 21.8475H9.88669C9.54692 21.8475 9.27147 22.123 9.27147 22.4628V26.7694H8.61523C8.27546 26.7694 8 27.0448 8 27.3846C8 27.7243 8.27546 27.9998 8.61523 27.9998H28.3845C28.7243 27.9998 28.9997 27.7243 28.9997 27.3846C28.9997 27.0448 28.7243 26.7694 28.3845 26.7694Z" fill="white"/>
<path d="M8.61523 20.2194C12.455 20.2194 16.6189 18.8404 20.34 16.3364C23.2544 14.3753 25.6837 11.87 27.1928 9.3046L27.7903 11.5345C27.8639 11.8093 28.2196 12.0468 28.5437 11.9695C28.8742 11.8906 29.0667 11.5442 28.9788 11.216L27.9713 7.45613C27.8833 7.12797 27.5461 6.93315 27.2178 7.02113L23.458 8.02858C23.1298 8.11652 22.935 8.45387 23.023 8.78207C23.1109 9.11027 23.4481 9.30509 23.7764 9.21707L26.1986 8.56805C24.7907 11.0144 22.464 13.424 19.6531 15.3156C16.1328 17.6844 12.2129 18.989 8.61523 18.989C8.27546 18.989 8 19.2645 8 19.6042C8 19.944 8.27546 20.2194 8.61523 20.2194Z" fill="white"/>
</g>
<defs>
<linearGradient id="paint0_linear_1038_286" x1="18.5" y1="0" x2="-4.18194e-07" y2="33.0072" gradientUnits="userSpaceOnUse">
<stop stop-color="#FD0507"/>
<stop offset="1" stop-color="#970304"/>
</linearGradient>
<clipPath id="clip0_1038_286">
<rect width="21" height="21" fill="white" transform="translate(8 7)"/>
</clipPath>
</defs>
</svg>
