<svg width="37" height="37" viewBox="0 0 37 37" fill="none" xmlns="http://www.w3.org/2000/svg">
<rect width="37" height="37" rx="8" fill="url(#paint0_linear_1038_300)"/>
<path d="M23.3196 24.8382C23.3196 25.1135 23.2143 25.3676 23.0313 25.5582H13.228C12.5792 24.8912 13.1171 23.7265 14.0819 23.7476H22.1774C22.8095 23.7476 23.3196 24.2347 23.3196 24.8382ZM13.228 26.2941C12.5792 26.9612 13.1171 28.1259 14.0819 28.1047H22.1774C23.1422 28.1259 23.6801 26.9559 23.0258 26.2941H13.228ZM16.4495 30H19.8153C20.5361 30 21.1294 29.4971 21.2459 28.8406H15.019C15.1354 29.4971 15.7287 30 16.4495 30ZM23.73 19.1576C22.5434 20.1424 21.817 21.5294 21.6673 23.0118H19.2109V8.18824C19.2109 7.87588 19.4881 7.62706 19.8153 7.65353C25.8814 8.16706 28.249 15.4359 23.73 19.1576ZM24.8057 14.2024C24.8223 11.9788 23.2919 9.89294 21.0851 9.16765C20.8577 9.08824 20.5971 9.20471 20.5195 9.42706C20.4363 9.64941 20.5528 9.88765 20.7856 9.96706C22.6376 10.5759 23.9296 12.3282 23.9129 14.2024C23.924 14.7582 24.8001 14.7582 24.8057 14.2024ZM13.5218 20.4918C13.8102 20.2059 14.4645 19.8353 14.7084 20.3594C14.7972 20.5765 14.6807 20.8253 14.4478 20.91C13.4498 21.3441 13.9654 22.6306 14.5865 23.0118H16.5771C17.004 22.7153 17.2813 22.2388 17.2813 21.6988V9.69706C17.2702 7.96588 14.7861 7.45765 14.0431 9.03C14.6419 9.14118 16.4107 10.5812 15.1409 10.8512C14.7195 10.8353 14.6253 10.3006 14.2926 10.1206C12.6236 8.86059 10.2504 10.5865 10.9712 12.4235C11.7253 12.2912 12.7178 12.6459 13.2224 13.2547C13.4719 13.5141 13.2446 13.9641 12.8842 13.9535C12.7567 13.9535 12.6347 13.9006 12.5459 13.8C12.4295 13.6676 12.1689 13.4241 11.7586 13.3129C11.4702 13.2229 11.071 13.2441 10.8381 13.3182C8.537 13.9588 8.34847 17.0824 10.5442 17.9771C10.8437 17.5165 12.5958 16.2406 12.9119 17.1353C12.9729 17.3629 12.8232 17.5959 12.5903 17.6488C10.0618 18.2471 10.4112 21.6353 13.0173 21.7041C13.0228 21.2912 13.1614 20.8359 13.5218 20.4918ZM25.1827 8.98765C25.2992 8.98765 25.4101 8.94529 25.4988 8.86588L27.5559 6.90176C27.9607 6.49941 27.3452 5.91176 26.9294 6.30353L24.8722 8.26765C24.5839 8.51647 24.8001 8.99824 25.1827 8.98765ZM30.5613 13.8371H27.6557C27.068 13.8476 27.0735 14.6788 27.6557 14.6841H30.5613C31.149 14.6788 31.1435 13.8476 30.5613 13.8371ZM25.4932 19.6659C25.0718 19.2794 24.4563 19.8671 24.8667 20.2641L26.9238 22.2282C27.3397 22.62 27.9607 22.0218 27.5504 21.63C27.5504 21.6247 25.4932 19.6659 25.4932 19.6659ZM19.2109 6.62647C19.4549 6.62647 19.6545 6.43588 19.6545 6.20294V3.42353C19.6545 3.19059 19.4549 3 19.2109 3C18.9669 3 18.7673 3.19059 18.7673 3.42353V6.19765C18.7673 6.43588 18.9669 6.62647 19.2109 6.62647Z" fill="white"/>
<defs>
<linearGradient id="paint0_linear_1038_300" x1="18.5" y1="0" x2="-4.18194e-07" y2="33.0072" gradientUnits="userSpaceOnUse">
<stop stop-color="#FD0507"/>
<stop offset="1" stop-color="#970304"/>
</linearGradient>
</defs>
</svg>
