<svg width="37" height="37" viewBox="0 0 37 37" fill="none" xmlns="http://www.w3.org/2000/svg">
<rect width="37" height="37" rx="8" fill="url(#paint0_linear_1038_314)"/>
<g clip-path="url(#clip0_1038_314)">
<path d="M26.5741 8.32769C26.0865 7.87027 25.3204 7.89473 24.863 8.38229L20.1402 13.4165L19.3564 13.3579L14.6885 8.38229C14.2545 7.9217 13.5287 7.86858 13.0341 8.27774C12.5189 8.70389 12.4468 9.46694 12.8729 9.98209L17.0634 15.0482L17.0592 20.12L10.1002 19.7935C9.56867 19.7689 9.10199 20.1642 9.0481 20.7C8.99242 21.2543 9.39651 21.7488 9.95076 21.8045C9.95076 21.8045 14.2266 22.243 16.3559 22.4517C18.0673 22.595 19.5236 23.4688 19.6534 25.859C19.6927 27.2884 19.7451 29.0185 19.7451 29.0185C19.7604 29.5496 20.1886 29.9852 20.7262 29.9996C21.283 30.0146 21.7466 29.5754 21.7616 29.0185C21.7616 29.0185 22.001 21.7822 22.001 21.3507C22.001 21.3507 22.1979 15.6321 22.1576 15.4477L26.6786 9.98209C27.0809 9.4935 27.0422 8.76684 26.5741 8.32769Z" fill="white"/>
<path d="M17.6675 23.0924C17.0004 22.8149 16.2227 22.8917 15.6235 23.2955C15.0244 23.6992 14.6614 24.3912 14.6681 25.114C14.6748 25.82 15.0398 26.4943 15.6248 26.8882C15.8641 27.0494 16.1352 27.1608 16.418 27.216L16.421 27.2166C17.1218 27.3528 17.8592 27.127 18.3647 26.6228C18.8775 26.1109 19.1025 25.3542 18.9533 24.6453C18.8077 23.9547 18.3193 23.3636 17.6675 23.0924Z" fill="white"/>
</g>
<defs>
<linearGradient id="paint0_linear_1038_314" x1="18.5" y1="0" x2="-4.18194e-07" y2="33.0072" gradientUnits="userSpaceOnUse">
<stop stop-color="#FD0507"/>
<stop offset="1" stop-color="#970304"/>
</linearGradient>
<clipPath id="clip0_1038_314">
<rect width="22" height="22" fill="white" transform="translate(7 8)"/>
</clipPath>
</defs>
</svg>
