<svg width="37" height="37" viewBox="0 0 37 37" fill="none" xmlns="http://www.w3.org/2000/svg">
<rect width="37" height="37" rx="8" fill="url(#paint0_linear_1038_307)"/>
<path d="M29.991 18.7321C29.934 17.9211 29.548 17.1342 28.9317 16.5734C27.7823 15.5271 25.9506 15.357 24.5765 16.1688C24.5169 16.2039 24.4443 16.2128 24.3776 16.1928C24.3107 16.1728 24.2561 16.1264 24.228 16.065C23.6524 14.8107 22.3198 13.998 20.9305 13.998C20.7538 13.998 20.5763 14.0115 20.4021 14.0378C19.5612 14.1657 18.7755 14.6041 18.2461 15.2408C17.7721 15.8109 17.4771 16.5592 17.393 17.4043C17.3233 18.1047 17.3943 18.8844 17.6106 19.7882C17.7537 20.3864 17.9371 20.9674 18.158 21.526C18.1666 21.5481 18.1753 21.5704 18.1845 21.5924C18.8725 23.3052 19.9113 24.8016 21.2043 25.9194C23.5181 25.6259 25.8597 24.5279 27.8096 22.8199C28.5252 22.1929 29.0477 21.5896 29.4068 20.9753C29.8399 20.2344 30.042 19.4585 29.991 18.7321Z" fill="white"/>
<path d="M16.9127 17.3605C17.0058 16.4264 17.3363 15.5941 17.8684 14.9539C18.472 14.2276 19.3681 13.7276 20.3272 13.5819C20.3957 13.5715 20.4644 13.5629 20.5333 13.5562C20.4226 13.185 20.2619 12.8469 20.0545 12.5482C19.5839 11.8707 18.8399 11.3699 18.0135 11.1744C16.4721 10.8096 14.7927 11.5285 14.0207 12.8837C13.9872 12.9423 13.9287 12.9843 13.8603 12.9988C13.7918 13.0132 13.7203 12.9986 13.6642 12.9586C12.3672 12.0382 10.5272 12.059 9.28868 13.0081C8.62463 13.5171 8.16972 14.2697 8.04053 15.0731C7.92508 15.7927 8.05741 16.582 8.42308 17.3558C8.72615 17.9969 9.19277 18.6404 9.85006 19.3232C11.6406 21.1835 13.8758 22.4677 16.1549 22.948C16.6909 22.5584 17.1999 22.1034 17.671 21.5931C17.4568 21.0415 17.2795 20.4727 17.1403 19.891C16.9124 18.9384 16.8381 18.1107 16.9127 17.3605Z" fill="white"/>
<defs>
<linearGradient id="paint0_linear_1038_307" x1="18.5" y1="0" x2="-4.18194e-07" y2="33.0072" gradientUnits="userSpaceOnUse">
<stop stop-color="#FD0507"/>
<stop offset="1" stop-color="#970304"/>
</linearGradient>
</defs>
</svg>
