<svg width="428" height="80" viewBox="0 0 428 80" fill="none" xmlns="http://www.w3.org/2000/svg">
<path d="M417.977 79.1452V45.803L409.891 0.849609H417.683L421.579 25.8829L421.836 29.2917H422.056L422.314 25.8829L426.21 0.849609H434.002L425.916 45.803V79.1452H417.977Z" fill="url(#paint0_linear_1036_61)"/>
<path d="M385.453 79.1452V0.849609H393.392C398.146 0.849609 401.65 2.76705 403.904 6.60193C406.158 10.4013 407.285 16.0116 407.285 23.4328C407.285 27.8358 406.746 31.653 405.668 34.8842C404.615 38.08 403.328 40.4235 401.809 41.9149L407.212 79.1452H399.273L394.789 46.1226H393.392V79.1452H385.453ZM393.392 35.4701C394.862 35.4701 396.026 35.0085 396.884 34.0853C397.741 33.1266 398.354 31.7773 398.722 30.0374C399.089 28.2975 399.273 26.238 399.273 23.8589C399.273 20.1306 398.844 17.2722 397.986 15.2837C397.153 13.2597 395.622 12.2477 393.392 12.2477V35.4701Z" fill="url(#paint1_linear_1036_61)"/>
<path d="M361.402 79.1452V0.849609H379.559V12.6738H369.341V33.7657H376.692V45.2704H369.341V67.321H379.559V79.1452H361.402Z" fill="url(#paint2_linear_1036_61)"/>
<path d="M342.287 79.1452V12.6738H334.789V0.849609H357.724V12.6738H350.226V79.1452H342.287Z" fill="url(#paint3_linear_1036_61)"/>
<path d="M321.716 80C319.536 80 317.722 79.4851 316.277 78.4554C314.831 77.3901 313.692 75.8633 312.859 73.8748C312.025 71.8864 311.425 69.4896 311.058 66.6844C310.714 63.8793 310.543 60.719 310.543 57.2037L318.335 56.1385C318.335 57.8429 318.372 59.494 318.445 61.0919C318.543 62.6542 318.702 64.0746 318.923 65.3529C319.168 66.5956 319.511 67.5899 319.952 68.3355C320.418 69.0812 321.006 69.4541 321.716 69.4541C322.893 69.4541 323.726 68.6729 324.216 67.1105C324.706 65.5126 324.951 63.5952 324.951 61.3582C324.951 59.1212 324.547 56.7954 323.738 54.3808C322.929 51.9663 321.961 49.676 320.834 47.51C318.923 43.8171 317.245 40.3906 315.799 37.2304C314.378 34.0701 313.263 30.9632 312.454 27.9095C311.67 24.8557 311.278 21.66 311.278 18.3222C311.278 15.6946 311.511 13.2801 311.976 11.0786C312.442 8.84154 313.116 6.90635 313.998 5.27297C314.905 3.60408 315.995 2.30804 317.269 1.38482C318.543 0.461607 320.001 0 321.643 0C323.677 0 325.392 0.497115 326.789 1.49134C328.21 2.48557 329.349 3.9059 330.207 5.75233C331.089 7.59876 331.726 9.80026 332.118 12.3569C332.535 14.8779 332.743 17.6831 332.743 20.7723L324.951 21.8375C324.951 20.5237 324.902 19.2099 324.804 17.8961C324.73 16.5468 324.583 15.3218 324.363 14.221C324.142 13.1203 323.824 12.2326 323.407 11.5579C322.991 10.8833 322.451 10.5459 321.79 10.5459C320.761 10.5459 320.05 11.1851 319.658 12.4634C319.266 13.7062 319.07 15.4816 319.07 17.7896C319.07 20.7723 319.621 23.6485 320.724 26.4181C321.827 29.1877 323.309 32.419 325.171 36.1119C327.401 40.4794 329.214 44.4918 330.611 48.1491C332.032 51.8065 332.743 55.8544 332.743 60.2929C332.743 63.0981 332.535 65.7079 332.118 68.1225C331.701 70.5015 331.04 72.5788 330.133 74.3542C329.251 76.1296 328.112 77.5144 326.715 78.5087C325.343 79.5029 323.677 80 321.716 80Z" fill="url(#paint4_linear_1036_61)"/>
<path d="M282.648 79.1452L290.808 0.849609H300.511L308.671 79.1452H300.952L299.482 63.1665H291.837L290.367 79.1452H282.648ZM292.94 51.0227H298.379L296.101 24.7111L295.88 20.5567H295.439L295.219 24.7111L292.94 51.0227Z" fill="url(#paint5_linear_1036_61)"/>
<path d="M248.699 79.1452V0.849609H258.77L263.107 41.4355L263.475 45.59H263.622L263.989 41.4355L268.326 0.849609H278.397V79.1452H271.046V26.6286H270.605L270.311 29.9308L265.606 79.1452H261.49L256.785 29.9308L256.491 26.6286H256.05V79.1452H248.699Z" fill="url(#paint6_linear_1036_61)"/>
<path d="M210.004 79.1452V0.849609H218.09C220.638 0.849609 222.795 1.45325 224.559 2.66052C226.323 3.8678 227.744 5.92728 228.822 8.83896C229.9 11.7506 230.672 15.7453 231.138 20.823C231.628 25.9007 231.873 32.3099 231.873 40.0507C231.873 47.827 231.628 54.254 231.138 59.3316C230.672 64.3738 229.9 68.3507 228.822 71.2624C227.744 74.1386 226.323 76.1803 224.559 77.3876C222.795 78.5593 220.638 79.1452 218.09 79.1452H210.004ZM217.943 67.6406C219.903 67.6406 221.288 66.522 222.096 64.285C222.905 62.048 223.395 58.8523 223.566 54.6978C223.738 50.5434 223.824 45.6077 223.824 39.8909C223.824 34.103 223.738 29.1674 223.566 25.084C223.395 20.965 222.893 17.8225 222.059 15.6565C221.251 13.455 219.879 12.3543 217.943 12.3543V67.6406Z" fill="url(#paint7_linear_1036_61)"/>
<path d="M181.004 79.1452V0.849609H188.428L195.779 41.6485L196.441 45.2704H196.882V0.849609H204.159V79.1452H197.47L189.384 38.3463L188.722 34.7244H188.281V79.1452H181.004Z" fill="url(#paint8_linear_1036_61)"/>
<path d="M150.781 79.1452L158.941 0.849609H168.644L176.804 79.1452H169.085L167.615 63.1665H159.97L158.5 79.1452H150.781ZM161.073 51.0227H166.512L164.233 24.7111L164.013 20.5567H163.572L163.351 24.7111L161.073 51.0227Z" fill="url(#paint9_linear_1036_61)"/>
<path d="M136.978 79.1452V12.6738H129.48V0.849609H152.415V12.6738H144.917V79.1452H136.978Z" fill="url(#paint10_linear_1036_61)"/>
<path d="M116.408 80C114.227 80 112.414 79.4851 110.968 78.4554C109.522 77.3901 108.383 75.8633 107.55 73.8748C106.717 71.8864 106.116 69.4896 105.749 66.6844C105.406 63.8793 105.234 60.719 105.234 57.2037L113.026 56.1385C113.026 57.8429 113.063 59.494 113.137 61.0919C113.235 62.6542 113.394 64.0746 113.614 65.3529C113.859 66.5956 114.203 67.5899 114.644 68.3355C115.109 69.0812 115.697 69.4541 116.408 69.4541C117.584 69.4541 118.417 68.6729 118.907 67.1105C119.397 65.5126 119.642 63.5952 119.642 61.3582C119.642 59.1212 119.238 56.7954 118.429 54.3808C117.621 51.9663 116.653 49.676 115.526 47.51C113.614 43.8171 111.936 40.3906 110.49 37.2304C109.069 34.0701 107.954 30.9632 107.146 27.9095C106.362 24.8557 105.969 21.66 105.969 18.3222C105.969 15.6946 106.202 13.2801 106.668 11.0786C107.133 8.84154 107.807 6.90635 108.689 5.27297C109.596 3.60408 110.686 2.30804 111.96 1.38482C113.235 0.461607 114.693 0 116.334 0C118.368 0 120.083 0.497115 121.48 1.49134C122.901 2.48557 124.041 3.9059 124.898 5.75233C125.78 7.59876 126.417 9.80026 126.809 12.3569C127.226 14.8779 127.434 17.6831 127.434 20.7723L119.642 21.8375C119.642 20.5237 119.593 19.2099 119.495 17.8961C119.422 16.5468 119.275 15.3218 119.054 14.221C118.834 13.1203 118.515 12.2326 118.099 11.5579C117.682 10.8833 117.143 10.5459 116.481 10.5459C115.452 10.5459 114.742 11.1851 114.35 12.4634C113.957 13.7062 113.761 15.4816 113.761 17.7896C113.761 20.7723 114.313 23.6485 115.415 26.4181C116.518 29.1877 118.001 32.419 119.863 36.1119C122.093 40.4794 123.906 44.4918 125.302 48.1491C126.724 51.8065 127.434 55.8544 127.434 60.2929C127.434 63.0981 127.226 65.7079 126.809 68.1225C126.393 70.5015 125.731 72.5788 124.825 74.3542C123.943 76.1296 122.803 77.5144 121.406 78.5087C120.034 79.5029 118.368 80 116.408 80Z" fill="url(#paint11_linear_1036_61)"/>
<path d="M79.5 79.1452V0.849609H87.586C90.1344 0.849609 92.2906 1.45325 94.0549 2.66052C95.8191 3.8678 97.2403 5.92728 98.3184 8.83896C99.3965 11.7506 100.168 15.7453 100.634 20.823C101.124 25.9007 101.369 32.3099 101.369 40.0507C101.369 47.827 101.124 54.254 100.634 59.3316C100.168 64.3738 99.3965 68.3507 98.3184 71.2624C97.2403 74.1386 95.8191 76.1803 94.0549 77.3876C92.2906 78.5593 90.1344 79.1452 87.586 79.1452H79.5ZM87.439 67.6406C89.3993 67.6406 90.7837 66.522 91.5923 64.285C92.4009 62.048 92.891 58.8523 93.0625 54.6978C93.234 50.5434 93.3198 45.6077 93.3198 39.8909C93.3198 34.103 93.234 29.1674 93.0625 25.084C92.891 20.965 92.3886 17.8225 91.5555 15.6565C90.7469 13.455 89.3748 12.3543 87.439 12.3543V67.6406Z" fill="url(#paint12_linear_1036_61)"/>
<path d="M50.4961 79.1452V0.849609H57.9205L65.2715 41.6485L65.9331 45.2704H66.3741V0.849609H73.6515V79.1452H66.9622L58.8762 38.3463L58.2146 34.7244H57.7735V79.1452H50.4961Z" fill="url(#paint13_linear_1036_61)"/>
<path d="M20.2734 79.1452L28.433 0.849609H38.1362L46.2958 79.1452H38.5773L37.1071 63.1665H29.4621L27.9919 79.1452H20.2734ZM30.5648 51.0227H36.0044L33.7257 24.7111L33.5051 20.5567H33.0641L32.8435 24.7111L30.5648 51.0227Z" fill="url(#paint14_linear_1036_61)"/>
<path d="M-6 79.1452V0.849609H1.93901V33.2331H8.1138V0.849609H16.0528V79.1452H8.1138V45.0573H1.93901V79.1452H-6Z" fill="url(#paint15_linear_1036_61)"/>
<defs>
<linearGradient id="paint0_linear_1036_61" x1="251.543" y1="-51.5096" x2="251.279" y2="66.662" gradientUnits="userSpaceOnUse">
<stop stop-color="#FFF000" stop-opacity="0.68"/>
<stop offset="1" stop-color="#F6E912" stop-opacity="0"/>
</linearGradient>
<linearGradient id="paint1_linear_1036_61" x1="242.071" y1="-51.5096" x2="241.78" y2="66.6618" gradientUnits="userSpaceOnUse">
<stop stop-color="#FFF000" stop-opacity="0.68"/>
<stop offset="1" stop-color="#F6E912" stop-opacity="0"/>
</linearGradient>
<linearGradient id="paint2_linear_1036_61" x1="242.159" y1="-51.5096" x2="241.808" y2="66.6615" gradientUnits="userSpaceOnUse">
<stop stop-color="#FFF000" stop-opacity="0.68"/>
<stop offset="1" stop-color="#F6E912" stop-opacity="0"/>
</linearGradient>
<linearGradient id="paint3_linear_1036_61" x1="184.166" y1="-51.5096" x2="183.888" y2="66.6619" gradientUnits="userSpaceOnUse">
<stop stop-color="#FFF000" stop-opacity="0.68"/>
<stop offset="1" stop-color="#F6E912" stop-opacity="0"/>
</linearGradient>
<linearGradient id="paint4_linear_1036_61" x1="164.747" y1="-53.499" x2="164.448" y2="67.2449" gradientUnits="userSpaceOnUse">
<stop stop-color="#FFF000" stop-opacity="0.68"/>
<stop offset="1" stop-color="#F6E912" stop-opacity="0"/>
</linearGradient>
<linearGradient id="paint5_linear_1036_61" x1="111.749" y1="-51.5096" x2="111.504" y2="66.6621" gradientUnits="userSpaceOnUse">
<stop stop-color="#FFF000" stop-opacity="0.68"/>
<stop offset="1" stop-color="#F6E912" stop-opacity="0"/>
</linearGradient>
<linearGradient id="paint6_linear_1036_61" x1="53.6612" y1="-51.5096" x2="53.4467" y2="66.6622" gradientUnits="userSpaceOnUse">
<stop stop-color="#FFF000" stop-opacity="0.68"/>
<stop offset="1" stop-color="#F6E912" stop-opacity="0"/>
</linearGradient>
<linearGradient id="paint7_linear_1036_61" x1="66.3806" y1="-51.5096" x2="66.0893" y2="66.6618" gradientUnits="userSpaceOnUse">
<stop stop-color="#FFF000" stop-opacity="0.68"/>
<stop offset="1" stop-color="#F6E912" stop-opacity="0"/>
</linearGradient>
<linearGradient id="paint8_linear_1036_61" x1="28.9322" y1="-51.5096" x2="28.6571" y2="66.6619" gradientUnits="userSpaceOnUse">
<stop stop-color="#FFF000" stop-opacity="0.68"/>
<stop offset="1" stop-color="#F6E912" stop-opacity="0"/>
</linearGradient>
<linearGradient id="paint9_linear_1036_61" x1="-20.1184" y1="-51.5096" x2="-20.3632" y2="66.6621" gradientUnits="userSpaceOnUse">
<stop stop-color="#FFF000" stop-opacity="0.68"/>
<stop offset="1" stop-color="#F6E912" stop-opacity="0"/>
</linearGradient>
<linearGradient id="paint10_linear_1036_61" x1="-21.1429" y1="-51.5096" x2="-21.4207" y2="66.6619" gradientUnits="userSpaceOnUse">
<stop stop-color="#FFF000" stop-opacity="0.68"/>
<stop offset="1" stop-color="#F6E912" stop-opacity="0"/>
</linearGradient>
<linearGradient id="paint11_linear_1036_61" x1="-40.5614" y1="-53.499" x2="-40.8609" y2="67.2449" gradientUnits="userSpaceOnUse">
<stop stop-color="#FFF000" stop-opacity="0.68"/>
<stop offset="1" stop-color="#F6E912" stop-opacity="0"/>
</linearGradient>
<linearGradient id="paint12_linear_1036_61" x1="-64.1233" y1="-51.5096" x2="-64.4145" y2="66.6618" gradientUnits="userSpaceOnUse">
<stop stop-color="#FFF000" stop-opacity="0.68"/>
<stop offset="1" stop-color="#F6E912" stop-opacity="0"/>
</linearGradient>
<linearGradient id="paint13_linear_1036_61" x1="-101.576" y1="-51.5096" x2="-101.851" y2="66.6619" gradientUnits="userSpaceOnUse">
<stop stop-color="#FFF000" stop-opacity="0.68"/>
<stop offset="1" stop-color="#F6E912" stop-opacity="0"/>
</linearGradient>
<linearGradient id="paint14_linear_1036_61" x1="-150.626" y1="-51.5096" x2="-150.871" y2="66.6621" gradientUnits="userSpaceOnUse">
<stop stop-color="#FFF000" stop-opacity="0.68"/>
<stop offset="1" stop-color="#F6E912" stop-opacity="0"/>
</linearGradient>
<linearGradient id="paint15_linear_1036_61" x1="-150.83" y1="-51.5096" x2="-151.119" y2="66.6619" gradientUnits="userSpaceOnUse">
<stop stop-color="#FFF000" stop-opacity="0.68"/>
<stop offset="1" stop-color="#F6E912" stop-opacity="0"/>
</linearGradient>
</defs>
</svg>
