<svg width="208" height="260" viewBox="0 0 208 260" fill="none" xmlns="http://www.w3.org/2000/svg">
<g filter="url(#filter0_d_1070_81)">
<circle cx="116" cy="162" r="67" fill="url(#paint0_linear_1070_81)"/>
<circle cx="116" cy="162" r="66.5" stroke="url(#paint1_linear_1070_81)"/>
</g>
<path d="M93.6115 169V136.744H89.5795V132.88C90.9981 132.6 92.2675 132.031 93.3875 131.172C94.5075 130.313 95.3848 129.203 96.0195 127.84H99.6595V169H93.6115ZM111.489 169.448C109.883 169.448 108.558 169.159 107.513 168.58C106.486 168.001 105.683 167.171 105.105 166.088C104.545 164.987 104.153 163.671 103.929 162.14C103.705 160.609 103.593 158.901 103.593 157.016H109.641V158.64C109.641 160.171 109.734 161.477 109.921 162.56C110.107 163.643 110.63 164.184 111.489 164.184C112.049 164.184 112.459 163.923 112.721 163.4C112.982 162.859 113.15 162.168 113.225 161.328C113.299 160.488 113.337 159.611 113.337 158.696V149.512C113.337 148.635 113.225 147.916 113.001 147.356C112.795 146.777 112.366 146.488 111.713 146.488C111.078 146.488 110.574 146.787 110.201 147.384C109.827 147.981 109.594 148.691 109.501 149.512H103.985V127.84H118.601V133.832H109.193V142.68C109.547 142.251 110.005 141.868 110.565 141.532C111.143 141.177 111.927 141 112.917 141C114.317 141 115.493 141.345 116.445 142.036C117.415 142.708 118.143 143.679 118.629 144.948C119.133 146.217 119.385 147.739 119.385 149.512V158.696C119.385 160.152 119.263 161.533 119.021 162.84C118.797 164.128 118.395 165.267 117.817 166.256C117.238 167.245 116.435 168.029 115.409 168.608C114.382 169.168 113.075 169.448 111.489 169.448ZM133.485 169.448C130.928 169.448 128.94 168.589 127.521 166.872C126.121 165.136 125.421 163.027 125.421 160.544V154.048H122.509V150.296H125.421V146.544H122.509V142.792H125.421V136.296C125.421 134.635 125.748 133.132 126.401 131.788C127.055 130.444 127.988 129.38 129.201 128.596C130.415 127.793 131.843 127.392 133.485 127.392C136.043 127.392 138.021 128.251 139.421 129.968C140.84 131.667 141.549 133.776 141.549 136.296V138.592H135.893V136.296C135.893 135.437 135.716 134.719 135.361 134.14C135.007 133.561 134.419 133.272 133.597 133.272C132.851 133.272 132.309 133.571 131.973 134.168C131.637 134.765 131.469 135.475 131.469 136.296V142.792H137.853V146.544H131.469V150.296H137.853V154.048H131.469V160.544C131.469 161.291 131.647 161.981 132.001 162.616C132.375 163.251 132.907 163.568 133.597 163.568C134.437 163.568 135.025 163.279 135.361 162.7C135.716 162.121 135.893 161.403 135.893 160.544V158.248H141.549V160.544C141.549 163.045 140.831 165.155 139.393 166.872C137.956 168.589 135.987 169.448 133.485 169.448Z" fill="white"/>
<path d="M103.323 176.8H107.323C108.326 176.8 109.163 177.136 109.835 177.808C110.507 178.48 110.843 179.317 110.843 180.32C110.843 181.323 110.507 182.16 109.835 182.832C109.163 183.504 108.326 183.84 107.323 183.84H104.443V188H103.323V176.8ZM104.443 182.784H107.323C108.016 182.784 108.587 182.555 109.035 182.096C109.494 181.637 109.723 181.045 109.723 180.32C109.723 179.605 109.494 179.019 109.035 178.56C108.587 178.091 108.016 177.856 107.323 177.856H104.443V182.784ZM113.88 182.88V186.944H119.32V188H112.76V176.8H119.24V177.856H113.88V181.824H118.84V182.88H113.88ZM129.405 188H128.125L125.501 183.52H122.365V188H121.245V176.8H125.725C126.642 176.8 127.432 177.131 128.093 177.792C128.754 178.453 129.085 179.243 129.085 180.16C129.085 180.928 128.856 181.605 128.397 182.192C127.96 182.768 127.384 183.163 126.669 183.376L129.405 188ZM125.725 177.856H122.365V182.464H125.725C126.344 182.464 126.872 182.24 127.309 181.792C127.746 181.323 127.965 180.779 127.965 180.16C127.965 179.531 127.746 178.987 127.309 178.528C126.872 178.08 126.344 177.856 125.725 177.856ZM97.9913 192.8H99.3833V204H98.2633V194.496L94.3433 201.056H94.1833L90.2633 194.496V204H89.1433V192.8H90.5353L94.2633 199.04L97.9913 192.8ZM111.204 202.512C110.084 203.632 108.713 204.192 107.092 204.192C105.471 204.192 104.1 203.632 102.98 202.512C101.86 201.371 101.3 200 101.3 198.4C101.3 196.789 101.86 195.424 102.98 194.304C104.1 193.173 105.471 192.608 107.092 192.608C108.713 192.608 110.084 193.173 111.204 194.304C112.324 195.424 112.884 196.789 112.884 198.4C112.884 200 112.324 201.371 111.204 202.512ZM102.42 198.4C102.42 199.723 102.868 200.837 103.764 201.744C104.66 202.651 105.769 203.104 107.092 203.104C108.415 203.104 109.524 202.651 110.42 201.744C111.316 200.837 111.764 199.723 111.764 198.4C111.764 197.088 111.316 195.979 110.42 195.072C109.524 194.155 108.415 193.696 107.092 193.696C105.769 193.696 104.66 194.155 103.764 195.072C102.868 195.979 102.42 197.088 102.42 198.4ZM122 201.92V192.8H123.12V204H122.16L115.92 194.88V204H114.8V192.8H115.76L122 201.92ZM124.715 192.8H132.715V193.856H129.275V204H128.155V193.856H124.715V192.8ZM141.515 197.712V192.8H142.635V204H141.515V198.768H135.435V204H134.315V192.8H135.435V197.712H141.515Z" fill="white"/>
<g filter="url(#filter1_d_1070_81)">
<circle cx="74.5" cy="70.5" r="47.5" fill="url(#paint2_linear_1070_81)"/>
</g>
<path d="M60.4308 79V72.6H53.7508V69.2L59.8708 49.6H64.3908V68.8H66.3908V72.6H64.3908V79H60.4308ZM57.4308 68.8H60.4308V59.6V58.72H60.1908L59.9508 59.6L57.4308 68.8ZM73.9923 49.28C75.2457 49.28 76.2857 49.5533 77.1123 50.1C77.9523 50.6467 78.579 51.4 78.9923 52.36C79.419 53.3067 79.6323 54.4 79.6323 55.64V72.16C79.6323 73.2267 79.5257 74.2 79.3123 75.08C79.1123 75.9467 78.7857 76.7 78.3323 77.34C77.8923 77.9667 77.3123 78.4533 76.5923 78.8C75.8723 79.1467 75.0057 79.32 73.9923 79.32C72.979 79.32 72.1123 79.16 71.3923 78.84C70.6723 78.5067 70.0857 78.0333 69.6323 77.42C69.1923 76.8067 68.8657 76.0733 68.6523 75.22C68.4523 74.3667 68.3523 73.4133 68.3523 72.36V70.92H72.6723C72.6723 71.8533 72.699 72.6733 72.7523 73.38C72.8057 74.0733 72.9257 74.6133 73.1123 75C73.299 75.3733 73.5923 75.56 73.9923 75.56C74.3923 75.56 74.6857 75.4 74.8723 75.08C75.059 74.76 75.179 74.34 75.2323 73.82C75.2857 73.3 75.3123 72.7467 75.3123 72.16V67.64C75.1257 67.8933 74.8323 68.1267 74.4323 68.34C74.0323 68.54 73.539 68.64 72.9523 68.64C72.2457 68.64 71.6057 68.5133 71.0323 68.26C70.4723 68.0067 69.9923 67.64 69.5923 67.16C69.1923 66.6667 68.8857 66.06 68.6723 65.34C68.459 64.6067 68.3523 63.7733 68.3523 62.84V55.64C68.3523 54.4 68.5657 53.3 68.9923 52.34C69.419 51.38 70.0523 50.6333 70.8923 50.1C71.7323 49.5533 72.7657 49.28 73.9923 49.28ZM73.9923 53.04C73.539 53.04 73.2057 53.2667 72.9923 53.72C72.779 54.1733 72.6723 54.6533 72.6723 55.16V63.12C72.6723 63.6 72.7723 64.0467 72.9723 64.46C73.1857 64.8733 73.519 65.08 73.9723 65.08C74.439 65.08 74.779 64.88 74.9923 64.48C75.2057 64.0667 75.3123 63.6 75.3123 63.08V55.16C75.3123 54.6533 75.219 54.1733 75.0323 53.72C74.8457 53.2667 74.499 53.04 73.9923 53.04ZM89.7042 79.32C87.8776 79.32 86.4576 78.7067 85.4442 77.48C84.4442 76.24 83.9442 74.7333 83.9442 72.96V68.32H81.8642V65.64H83.9442V62.96H81.8642V60.28H83.9442V55.64C83.9442 54.4533 84.1776 53.38 84.6442 52.42C85.1109 51.46 85.7776 50.7 86.6442 50.14C87.5109 49.5667 88.5309 49.28 89.7042 49.28C91.5309 49.28 92.9442 49.8933 93.9442 51.12C94.9576 52.3333 95.4642 53.84 95.4642 55.64V57.28H91.4242V55.64C91.4242 55.0267 91.2976 54.5133 91.0442 54.1C90.7909 53.6867 90.3709 53.48 89.7842 53.48C89.2509 53.48 88.8642 53.6933 88.6242 54.12C88.3842 54.5467 88.2642 55.0533 88.2642 55.64V60.28H92.8242V62.96H88.2642V65.64H92.8242V68.32H88.2642V72.96C88.2642 73.4933 88.3909 73.9867 88.6442 74.44C88.9109 74.8933 89.2909 75.12 89.7842 75.12C90.3842 75.12 90.8042 74.9133 91.0442 74.5C91.2976 74.0867 91.4242 73.5733 91.4242 72.96V71.32H95.4642V72.96C95.4642 74.7467 94.9509 76.2533 93.9242 77.48C92.8976 78.7067 91.4909 79.32 89.7042 79.32Z" fill="black"/>
<path d="M40.5068 85.9H41.4168V95H40.5068V85.9ZM49.3529 85.9H50.2629V95H49.4829L44.4129 87.59V95H43.5029V85.9H44.2829L49.3529 93.31V85.9ZM55.0719 95.156C54.2399 95.156 53.5249 94.961 52.9269 94.571C52.3375 94.1723 51.9259 93.6263 51.6919 92.933L52.4719 92.478C52.6365 93.0413 52.9399 93.4833 53.3819 93.804C53.8239 94.116 54.3915 94.272 55.0849 94.272C55.7609 94.272 56.2852 94.1247 56.6579 93.83C57.0392 93.5267 57.2299 93.128 57.2299 92.634C57.2299 92.1573 57.0565 91.7977 56.7099 91.555C56.3632 91.3123 55.7912 91.061 54.9939 90.801C54.0492 90.489 53.4252 90.2377 53.1219 90.047C52.4285 89.631 52.0819 89.0287 52.0819 88.24C52.0819 87.4687 52.3505 86.862 52.8879 86.42C53.4252 85.9693 54.0882 85.744 54.8769 85.744C55.5875 85.744 56.2029 85.9303 56.7229 86.303C57.2429 86.667 57.6285 87.135 57.8799 87.707L57.1129 88.136C56.6969 87.1307 55.9515 86.628 54.8769 86.628C54.3135 86.628 53.8585 86.7667 53.5119 87.044C53.1652 87.3213 52.9919 87.707 52.9919 88.201C52.9919 88.6517 53.1479 88.9897 53.4599 89.215C53.7719 89.4403 54.2875 89.67 55.0069 89.904C55.3362 90.0167 55.5702 90.099 55.7089 90.151C55.8562 90.1943 56.0642 90.2723 56.3329 90.385C56.6102 90.489 56.8139 90.5843 56.9439 90.671C57.0739 90.749 57.2299 90.8617 57.4119 91.009C57.6025 91.1477 57.7369 91.2907 57.8149 91.438C57.9015 91.5767 57.9752 91.75 58.0359 91.958C58.1052 92.1573 58.1399 92.374 58.1399 92.608C58.1399 93.3793 57.8582 93.999 57.2949 94.467C56.7315 94.9263 55.9905 95.156 55.0719 95.156ZM65.092 85.9V86.758H62.297V95H61.387V86.758H58.592V85.9H65.092ZM67.3025 94.142H71.7225V95H66.3925V85.9H71.6575V86.758H67.3025V89.982H71.3325V90.84H67.3025V94.142ZM79.471 95L78.626 92.764H74.31L73.465 95H72.503L76 85.9H76.936L80.433 95H79.471ZM74.635 91.906H78.301L76.468 87.031L74.635 91.906ZM85.1115 85.9C86.3509 85.9 87.3735 86.342 88.1795 87.226C88.9942 88.1013 89.4015 89.176 89.4015 90.45C89.4015 91.724 88.9942 92.803 88.1795 93.687C87.3735 94.5623 86.3509 95 85.1115 95H81.6015V85.9H85.1115ZM85.1115 94.142C86.1082 94.142 86.9229 93.7867 87.5555 93.076C88.1969 92.3653 88.5175 91.49 88.5175 90.45C88.5175 89.41 88.1969 88.5347 87.5555 87.824C86.9229 87.1133 86.1082 86.758 85.1115 86.758H82.5115V94.142H85.1115ZM101.735 93.791C100.825 94.701 99.7113 95.156 98.394 95.156C97.0766 95.156 95.963 94.701 95.053 93.791C94.143 92.8723 93.688 91.7587 93.688 90.45C93.688 89.1413 94.143 88.032 95.053 87.122C95.963 86.2033 97.0766 85.744 98.394 85.744C99.7113 85.744 100.825 86.2033 101.735 87.122C102.645 88.032 103.1 89.1413 103.1 90.45C103.1 91.7587 102.645 92.8723 101.735 93.791ZM95.69 93.167C96.418 93.9037 97.3193 94.272 98.394 94.272C99.4686 94.272 100.37 93.9037 101.098 93.167C101.826 92.4217 102.19 91.516 102.19 90.45C102.19 89.384 101.826 88.4827 101.098 87.746C100.37 87.0007 99.4686 86.628 98.394 86.628C97.3193 86.628 96.418 87.0007 95.69 87.746C94.962 88.4827 94.598 89.384 94.598 90.45C94.598 91.516 94.962 92.4217 95.69 93.167ZM109.791 86.758H105.566V90.112H109.596V90.97H105.566V95H104.656V85.9H109.791V86.758Z" fill="black"/>
<line x1="40" y1="64" x2="106" y2="64" stroke="#E11F1F" stroke-width="2"/>
<defs>
<filter id="filter0_d_1070_81" x="22" y="72" width="188" height="188" filterUnits="userSpaceOnUse" color-interpolation-filters="sRGB">
<feFlood flood-opacity="0" result="BackgroundImageFix"/>
<feColorMatrix in="SourceAlpha" type="matrix" values="0 0 0 0 0 0 0 0 0 0 0 0 0 0 0 0 0 0 127 0" result="hardAlpha"/>
<feOffset dy="4"/>
<feGaussianBlur stdDeviation="13.5"/>
<feComposite in2="hardAlpha" operator="out"/>
<feColorMatrix type="matrix" values="0 0 0 0 0.693003 0 0 0 0 0.0380157 0 0 0 0 0.0380157 0 0 0 1 0"/>
<feBlend mode="normal" in2="BackgroundImageFix" result="effect1_dropShadow_1070_81"/>
<feBlend mode="normal" in="SourceGraphic" in2="effect1_dropShadow_1070_81" result="shape"/>
</filter>
<filter id="filter1_d_1070_81" x="0" y="0" width="149" height="149" filterUnits="userSpaceOnUse" color-interpolation-filters="sRGB">
<feFlood flood-opacity="0" result="BackgroundImageFix"/>
<feColorMatrix in="SourceAlpha" type="matrix" values="0 0 0 0 0 0 0 0 0 0 0 0 0 0 0 0 0 0 127 0" result="hardAlpha"/>
<feOffset dy="4"/>
<feGaussianBlur stdDeviation="13.5"/>
<feComposite in2="hardAlpha" operator="out"/>
<feColorMatrix type="matrix" values="0 0 0 0 0.395113 0 0 0 0 0.395113 0 0 0 0 0.395113 0 0 0 1 0"/>
<feBlend mode="normal" in2="BackgroundImageFix" result="effect1_dropShadow_1070_81"/>
<feBlend mode="normal" in="SourceGraphic" in2="effect1_dropShadow_1070_81" result="shape"/>
</filter>
<linearGradient id="paint0_linear_1070_81" x1="116" y1="95" x2="49" y2="214.54" gradientUnits="userSpaceOnUse">
<stop stop-color="#FD0507"/>
<stop offset="1" stop-color="#970304"/>
</linearGradient>
<linearGradient id="paint1_linear_1070_81" x1="116" y1="95" x2="116" y2="229" gradientUnits="userSpaceOnUse">
<stop stop-color="#FF0000"/>
<stop offset="1" stop-color="#FF0404"/>
</linearGradient>
<linearGradient id="paint2_linear_1070_81" x1="74.5" y1="23" x2="27" y2="107.748" gradientUnits="userSpaceOnUse">
<stop stop-color="white"/>
<stop offset="1" stop-color="#BABABA"/>
</linearGradient>
</defs>
</svg>
