<svg width="401" height="96" viewBox="0 0 401 96" fill="none" xmlns="http://www.w3.org/2000/svg">
<path d="M359.789 94.6416V1.01562H373.483V32.2243V33.7529H373.99L374.624 32.2243L385.276 1.01562H399.35L386.797 31.8421L400.999 94.6416H386.924L377.794 51.9685H377.414L373.483 61.5222V94.6416H359.789Z" fill="url(#paint0_linear_1038_119)"/>
<path d="M331.97 95.6641C328.166 95.6641 324.89 94.7724 322.143 92.989C319.438 91.2057 317.346 88.7854 315.867 85.7282C314.429 82.6711 313.711 79.2318 313.711 75.4103V20.2538C313.711 16.3898 314.429 12.9505 315.867 9.93582C317.346 6.87864 319.438 4.45838 322.143 2.67502C324.89 0.891674 328.166 0 331.97 0C335.774 0 339.028 0.891674 341.733 2.67502C344.481 4.45838 346.573 6.87864 348.01 9.93582C349.489 12.993 350.229 16.4323 350.229 20.2538V75.4103C350.229 79.2318 349.489 82.6711 348.01 85.7282C346.573 88.7854 344.481 91.2057 341.733 92.989C339.028 94.7724 335.774 95.6641 331.97 95.6641ZM331.97 82.2889C333.661 82.2889 334.844 81.5883 335.52 80.1871C336.197 78.7435 336.535 77.1512 336.535 75.4103V20.2538C336.535 18.5129 336.175 16.9418 335.457 15.5406C334.738 14.097 333.576 13.3751 331.97 13.3751C330.406 13.3751 329.244 14.097 328.483 15.5406C327.764 16.9418 327.405 18.5129 327.405 20.2538V75.4103C327.405 77.1512 327.764 78.7435 328.483 80.1871C329.201 81.5883 330.364 82.2889 331.97 82.2889Z" fill="url(#paint1_linear_1038_119)"/>
<path d="M264.32 94.6416V1.01562H277.127L289.807 49.803L290.948 54.134H291.709V1.01562H304.262V94.6416H292.723L278.775 45.8542L277.634 41.5232H276.873V94.6416H264.32Z" fill="url(#paint2_linear_1038_119)"/>
<path d="M222.84 94.6416V1.01562H254.159V15.1551H236.534V40.3767H249.214V54.134H236.534V80.5021H254.159V94.6416H222.84Z" fill="url(#paint3_linear_1038_119)"/>
<path d="M185.441 94.6416V1.01562H199.136V81.9034H217.268V94.6416H185.441Z" fill="url(#paint4_linear_1038_119)"/>
<path d="M133.305 94.6416L147.379 1.01562H164.117L178.191 94.6416H164.877L162.342 75.5342H149.154L146.619 94.6416H133.305ZM151.056 61.0127H160.44L156.509 29.5492L156.128 24.5813H155.368L154.987 29.5492L151.056 61.0127Z" fill="url(#paint5_linear_1038_119)"/>
<path d="M89.9727 94.6416V1.01562H103.92C108.654 1.01562 112.733 1.86484 116.157 3.56327C119.622 5.21924 122.285 7.83057 124.145 11.3973C126.047 14.964 126.998 19.571 126.998 25.2183C126.998 29.7191 126.406 33.6467 125.223 37.0011C124.081 40.3555 121.841 43.0942 118.502 45.2173C121.884 47.0855 124.314 50.0578 125.793 54.134C127.272 58.1678 128.012 62.8385 128.012 68.1461C128.012 73.3687 127.167 77.9757 125.476 81.967C123.828 85.9584 121.376 89.0792 118.122 91.3296C114.91 93.5376 110.937 94.6416 106.203 94.6416H89.9727ZM103.667 81.0117C107.809 81.0117 110.535 79.7803 111.845 77.3176C113.156 74.8124 113.811 71.2457 113.811 66.6175C113.811 61.9043 113.156 58.3376 111.845 55.9174C110.535 53.4546 107.809 52.2233 103.667 52.2233V81.0117ZM103.667 39.6124C107.513 39.6124 110.155 38.5509 111.592 36.4279C113.071 34.3048 113.811 31.1628 113.811 27.0016C113.811 22.798 113.05 19.6984 111.528 17.7027C110.049 15.6646 107.429 14.6455 103.667 14.6455V39.6124Z" fill="url(#paint6_linear_1038_119)"/>
<path d="M61.548 95.6606C57.7018 95.6606 54.4051 94.769 51.6578 92.9856C48.9527 91.2022 46.8817 88.782 45.4446 85.7248C44.0076 82.6676 43.2891 79.2283 43.2891 75.4069V1.01562H56.9833V75.4069C56.9833 77.2327 57.3426 78.8462 58.0611 80.2474C58.7796 81.6061 59.9419 82.2855 61.548 82.2855C63.2387 82.2855 64.4221 81.6061 65.0984 80.2474C65.7746 78.8462 66.1128 77.2327 66.1128 75.4069V1.01562H79.807V75.4069C79.807 79.2283 79.0673 82.6676 77.588 85.7248C76.151 88.782 74.0588 91.2022 71.3115 92.9856C68.6065 94.769 65.352 95.6606 61.548 95.6606Z" fill="url(#paint7_linear_1038_119)"/>
<path d="M0 94.6416V79.8652L21.4289 14.6455H3.04316V1.01562H36.2643V14.6455L14.455 81.0117H36.2643V94.6416H0Z" fill="url(#paint8_linear_1038_119)"/>
<defs>
<linearGradient id="paint0_linear_1038_119" x1="379.75" y1="-1.92046" x2="398.176" y2="55.8964" gradientUnits="userSpaceOnUse">
<stop stop-color="white"/>
<stop offset="1"/>
</linearGradient>
<linearGradient id="paint1_linear_1038_119" x1="331.399" y1="-3" x2="352.468" y2="54.3336" gradientUnits="userSpaceOnUse">
<stop stop-color="white"/>
<stop offset="1"/>
</linearGradient>
<linearGradient id="paint2_linear_1038_119" x1="283.667" y1="-1.92046" x2="302.566" y2="55.5546" gradientUnits="userSpaceOnUse">
<stop stop-color="white"/>
<stop offset="1"/>
</linearGradient>
<linearGradient id="paint3_linear_1038_119" x1="238.01" y1="-1.92046" x2="260.724" y2="52.2441" gradientUnits="userSpaceOnUse">
<stop stop-color="white"/>
<stop offset="1"/>
</linearGradient>
<linearGradient id="paint4_linear_1038_119" x1="200.857" y1="-1.92046" x2="223.315" y2="52.5014" gradientUnits="userSpaceOnUse">
<stop stop-color="white"/>
<stop offset="1"/>
</linearGradient>
<linearGradient id="paint5_linear_1038_119" x1="155.047" y1="-1.92046" x2="172.212" y2="56.7464" gradientUnits="userSpaceOnUse">
<stop stop-color="white"/>
<stop offset="1"/>
</linearGradient>
<linearGradient id="paint6_linear_1038_119" x1="108.398" y1="-1.92046" x2="128.045" y2="54.9854" gradientUnits="userSpaceOnUse">
<stop stop-color="white"/>
<stop offset="1"/>
</linearGradient>
<linearGradient id="paint7_linear_1038_119" x1="60.9774" y1="-1.95241" x2="81.6518" y2="54.9138" gradientUnits="userSpaceOnUse">
<stop stop-color="white"/>
<stop offset="1"/>
</linearGradient>
<linearGradient id="paint8_linear_1038_119" x1="17.5655" y1="-1.92046" x2="37.9569" y2="54.384" gradientUnits="userSpaceOnUse">
<stop stop-color="white"/>
<stop offset="1"/>
</linearGradient>
</defs>
</svg>
